<?xml version="1.0" encoding="UTF-8" standalone="no"?>
<!-- Generator: Adobe Illustrator 19.1.0, SVG Export Plug-In . SVG Version: 6.00 Build 0)  -->

<svg
   xmlns:dc="http://purl.org/dc/elements/1.1/"
   xmlns:cc="http://creativecommons.org/ns#"
   xmlns:rdf="http://www.w3.org/1999/02/22-rdf-syntax-ns#"
   xmlns:svg="http://www.w3.org/2000/svg"
   xmlns="http://www.w3.org/2000/svg"
   xmlns:sodipodi="http://sodipodi.sourceforge.net/DTD/sodipodi-0.dtd"
   xmlns:inkscape="http://www.inkscape.org/namespaces/inkscape"
   version="1.1"
   id="Layer_1"
   x="0px"
   y="0px"
   viewBox="-164 255.8 282.2 283.2"
   style="enable-background:new -164 255.8 282.2 283.2;"
   xml:space="preserve"
   inkscape:version="0.91 r13725"
   sodipodi:docname="chef_logo_v2.svg"
   inkscape:export-filename="/home/rleibman/workspace/chef-eclipse-plugin/icons/chef_logo_v2_16x16.png"
   inkscape:export-xdpi="5.0999999"
   inkscape:export-ydpi="5.0999999"><metadata
     id="metadata35"><rdf:RDF><cc:Work
         rdf:about=""><dc:format>image/svg+xml</dc:format><dc:type
           rdf:resource="http://purl.org/dc/dcmitype/StillImage" /></cc:Work></rdf:RDF></metadata><defs
     id="defs33" /><sodipodi:namedview
     pagecolor="#ffffff"
     bordercolor="#666666"
     borderopacity="1"
     objecttolerance="10"
     gridtolerance="10"
     guidetolerance="10"
     inkscape:pageopacity="0"
     inkscape:pageshadow="2"
     inkscape:window-width="905"
     inkscape:window-height="480"
     id="namedview31"
     showgrid="false"
     inkscape:zoom="0.8333333"
     inkscape:cx="141.10001"
     inkscape:cy="141.60001"
     inkscape:window-x="2754"
     inkscape:window-y="180"
     inkscape:window-maximized="0"
     inkscape:current-layer="Layer_1" /><style
     type="text/css"
     id="style3">
	.st0{fill:#435363;}
	.st1{fill:#F38B00;}
</style><path
     class="st0"
     d="M-22.3,461.2c-35.2,0-63.8-28.6-63.8-63.8s28.6-63.8,63.8-63.8c29,0,53.6,19.5,61.3,46.1h24.7  c-8.2-39.9-43.6-70-86-70c-48.4,0-87.7,39.4-87.7,87.7c0,48.4,39.4,87.7,87.7,87.7c42.3,0,77.7-30.1,86-70H38.9  C31.2,441.7,6.7,461.2-22.3,461.2"
     id="path5" /><path
     class="st0"
     d="M-65.3,440.4c11,11,26.2,17.8,43,17.8v-25.4c-9.8,0-18.6-4-25-10.4L-65.3,440.4z"
     id="path7" /><path
     class="st1"
     d="M-83.2,397.4c0,8.7,1.9,17,5.2,24.5l23.3-10.2c-1.9-4.4-3-9.2-3-14.3c0-19.6,15.9-35.4,35.4-35.4v-25.4  C-55.9,336.6-83.2,363.9-83.2,397.4"
     id="path9" /><path
     class="st0"
     d="M-0.3,340.7l-9.2,23.7c7.5,2.9,13.8,8.4,17.8,15.3h27.6C30.4,361.9,17,347.5-0.3,340.7"
     id="path11" /><path
     class="st1"
     d="M-9.5,430.4l9.2,23.7c17.3-6.7,30.7-21.1,36.1-39H8.3C4.3,422-2,427.5-9.5,430.4"
     id="path13" /><path
     class="st1"
     d="M-22.3,515c-32.4,0-61.8-13.2-83.1-34.5l-17,17c25.6,25.6,61,41.5,100.1,41.5c72.2,0,131.8-54.1,140.5-123.9  H93.9C85.4,471.6,36.5,515-22.3,515"
     id="path15" /><path
     class="st1"
     d="M-22.3,279.8c26.3,0,50.7,8.7,70.3,23.4l14.4-19.3c-23.7-17.6-53-28.1-84.7-28.1c-60.1,0-111.4,37.4-132,90.3  l22.4,8.7C-114.8,310.9-72.1,279.8-22.3,279.8"
     id="path17" /><path
     class="st0"
     d="M93.9,379.7h24.3c-2.6-20.8-9.7-40.3-20.4-57.3l-20.4,12.7C85.7,348.5,91.5,363.6,93.9,379.7"
     id="path19" /><path
     class="st1"
     d="M66.6,379.7h24.3c-6.3-40.8-34.3-74.5-71.7-89.1l-8.7,22.3C39,324,60.5,349.1,66.6,379.7"
     id="path21" /><path
     class="st0"
     d="M-22.3,306.7L-22.3,306.7v-24l0,0c-48.6,0-90.2,30.4-106.8,73.1l22.3,8.7C-93.7,330.7-60.8,306.7-22.3,306.7"
     id="path23" /><path
     class="st1"
     d="M-113,397.4L-113,397.4h-24l0,0c0,48.2,29.9,89.5,72.1,106.4l8.9-22.2C-89.4,468.2-113,435.5-113,397.4"
     id="path25" /><path
     class="st0"
     d="M-22.3,488.1v24c57.2,0,104.7-42.1,113.3-97H66.7C58.4,456.7,21.6,488.1-22.3,488.1"
     id="path27" /><path
     class="st0"
     d="M-152,454.4c-8-18.1-12-37.6-12-57h24.1c0,16.1,3.3,32.3,9.9,47.3L-152,454.4z"
     id="path29" /></svg>